<?xml version="1.0" encoding="UTF-8" standalone="no"?>
<svg
   xmlns:dc="http://purl.org/dc/elements/1.1/"
   xmlns:cc="http://creativecommons.org/ns#"
   xmlns:rdf="http://www.w3.org/1999/02/22-rdf-syntax-ns#"
   xmlns:svg="http://www.w3.org/2000/svg"
   xmlns="http://www.w3.org/2000/svg"
   xmlns:sodipodi="http://sodipodi.sourceforge.net/DTD/sodipodi-0.dtd"
   xmlns:inkscape="http://www.inkscape.org/namespaces/inkscape"
   width="1222.0236pt"
   height="537.49023pt"
   viewBox="0 0 1222.0235 537.49024"
   version="1.1"
   id="svg100698"
   sodipodi:docname="twiinIT_blanc.svg"
   inkscape:version="1.0.2 (e86c870, 2021-01-15)"
   inkscape:export-filename="/home/adrien/Documents/logos/twiinIT_jaune.png"
   inkscape:export-xdpi="150"
   inkscape:export-ydpi="150">
  <metadata
     id="metadata52">
    <rdf:RDF>
      <cc:Work
         rdf:about="">
        <dc:format>image/svg+xml</dc:format>
        <dc:type
           rdf:resource="http://purl.org/dc/dcmitype/StillImage" />
        <dc:title></dc:title>
      </cc:Work>
    </rdf:RDF>
  </metadata>
  <defs
     id="defs100702">
    <rect
       x="660.52612"
       y="-91.448799"
       width="470.72321"
       height="397.08466"
       id="rect81097" />
    <rect
       x="-821.8349"
       y="379.50644"
       width="213.59045"
       height="111.31408"
       id="rect44297" />
  </defs>
  <sodipodi:namedview
     id="namedview100700"
     pagecolor="#ffffff"
     bordercolor="#666666"
     borderopacity="1.0"
     inkscape:pageshadow="2"
     inkscape:pageopacity="0.0"
     inkscape:pagecheckerboard="0"
     inkscape:document-units="pt"
     showgrid="false"
     inkscape:zoom="0.99999996"
     inkscape:cx="752.06424"
     inkscape:cy="256.72164"
     inkscape:window-width="3366"
     inkscape:window-height="1376"
     inkscape:window-x="74"
     inkscape:window-y="27"
     inkscape:window-maximized="1"
     inkscape:current-layer="g86395"
     inkscape:document-rotation="0" />
  <g
     aria-label="twinIT"
     transform="scale(1.0714182,0.93334237)"
     id="text36937"
     style="font-size:398.575px;line-height:1.25;stroke-width:6.22776">
    <g
       id="g1355"
       transform="translate(0,20.892653)"
       style="fill:#3e3e3e;fill-opacity:1;stroke:none;stroke-opacity:1">
      <path
         d="m 130.46656,412.49059 c 0,-5.06004 -3.11386,-9.3416 -7.0062,-11.48239 -3.30848,-1.75155 -6.42235,-7.0062 -9.3416,-15.56933 -6.42235,-19.07244 -9.53621,-51.96266 -9.53621,-99.05991 0,-10.31468 0,-21.40783 0.38924,-33.08484 10.12005,0 20.04551,0.19462 30.16558,0.19462 h 0.19461 c 7.97929,0 12.06624,-6.22773 12.06624,-12.45547 0,-6.42235 -4.08695,-12.65008 -12.26085,-12.8447 l -29.38712,-0.19462 c 0.58385,-12.06623 1.75155,-47.09724 1.75155,-68.31046 0,-3.89234 -0.19462,-7.20082 -0.19462,-9.92545 -0.19462,-7.97929 -6.42233,-11.87162 -12.650065,-11.87162 -6.227735,0 -12.650086,4.08695 -12.650086,12.06623 0,2.91925 0.194617,6.22774 0.194617,10.31469 0,20.82399 -1.167701,56.04961 -1.751551,67.53199 l -39.117958,-0.19461 c -6.616967,0 -12.650085,6.03312 -12.650085,12.26085 0,6.81159 5.838501,13.03932 12.650085,13.03932 12.844703,0 25.494789,0.19462 38.339491,0.19462 -0.389233,12.8447 -0.58385,25.10555 -0.58385,36.58794 0,22.96477 0.778467,43.20491 2.335401,60.52579 3.5031,39.89643 13.623169,64.41813 30.360181,73.3705 1.94617,0.97308 3.89233,1.55693 5.8385,1.55693 6.81159,0 12.8447,-5.64388 12.8447,-12.65008 z"
         style="font-family:Chilanka;-inkscape-font-specification:Chilanka;fill:#3e3e3e;fill-opacity:1;stroke:none;stroke-opacity:1"
         id="path997" />
      <path
         d="m 299.75155,224.29623 c -14.98548,0 -13.23393,19.26706 -14.0124,34.44716 -4.6708,46.31878 -20.04552,116.96464 -46.70801,136.81554 -1.36231,0.97309 -2.14078,1.55694 -2.53001,1.55694 -0.38924,0 -0.97309,-0.38923 -1.94617,-0.97309 -3.89234,-2.53001 -7.78467,-8.75775 -11.87162,-18.29397 -10.5093,-25.10555 -16.93165,-71.81356 -19.07244,-140.12402 -0.19461,-7.97929 -6.42235,-11.87162 -12.65008,-11.87162 -6.22774,0 -12.65009,4.08695 -12.65009,12.06623 0,101.97916 19.46167,164.64574 42.62106,179.43661 5.25465,3.30848 10.5093,4.86541 15.76395,4.86541 5.8385,0 11.677,-1.94616 17.32089,-6.22773 15.76395,-11.48239 28.99789,-34.44716 39.89642,-68.6997 10.50931,37.36641 34.25254,73.3705 74.14897,73.3705 15.37472,0 29.38712,-5.64388 42.23182,-17.12627 18.87782,-16.73704 29.58174,-42.62106 29.58174,-77.26283 0,-28.99789 -8.56313,-59.55271 -25.88402,-92.0537 -2.3354,-4.6708 -6.22773,-6.61697 -10.31468,-6.61697 -6.61697,0 -13.62317,5.44927 -13.62317,12.45547 0,1.94616 0.58385,3.89233 1.75155,6.03312 15.1801,28.80327 22.77015,55.46576 22.77015,80.18208 0,25.6894 -7.39543,46.12416 -20.04552,57.41193 -9.3416,8.1739 -18.29397,11.677 -26.85711,11.677 -15.1801,0 -28.60865,-11.09315 -38.33949,-28.02481 -11.48238,-19.65628 -18.6832,-53.32497 -18.6832,-87.18828 0,-12.45547 1.75155,-32.89022 1.75155,-40.86951 0,-8.95237 -4.47618,-14.98549 -12.65009,-14.98549 z"
         style="font-family:Chilanka;-inkscape-font-specification:Chilanka;fill:#3e3e3e;fill-opacity:1;stroke:none;stroke-opacity:1"
         id="path999" />
      <path
         d="m 501.92678,386.9958 c 1.94617,-38.92334 1.94617,-70.06201 1.94617,-112.29384 0,-12.8447 -0.19462,-25.88402 -0.38923,-39.70181 0,-8.1739 -6.03312,-12.06623 -12.26086,-12.06623 -6.42235,0 -12.8447,4.08695 -12.8447,12.45547 0.19462,10.12007 0.19462,20.82398 0.19462,31.72252 0,29.97097 0.19461,122.80314 -5.64389,136.03708 -0.58385,1.75155 -0.97308,3.5031 -0.97308,5.06003 0,7.20082 6.03312,12.8447 12.8447,12.8447 12.06624,0 16.3478,-13.23393 17.12627,-34.05792 z"
         style="font-family:Chilanka;-inkscape-font-specification:Chilanka;fill:#3e3e3e;fill-opacity:1;stroke:none;stroke-opacity:1"
         id="path1001"
         sodipodi:nodetypes="cscscscssc" />
      <path
         d="m 606.98904,218.26312 c -6.42235,0 -13.03932,4.86541 -13.03932,12.45547 0,3.30848 1.75155,6.61696 4.6708,10.31468 3.30849,4.08695 7.00621,13.42855 11.09316,28.41404 4.08695,14.98549 6.42235,37.36641 7.0062,67.14276 -2.53002,16.15319 -3.89234,33.66869 -3.89234,52.74113 0,5.64388 0.19462,11.28777 0.38924,17.12627 0.38923,7.78467 6.61697,11.677 12.8447,11.677 5.8385,0 11.48239,-3.5031 12.26085,-10.70392 l 0.77847,-7.59005 c 1.94617,-18.87782 2.91925,-37.75564 2.91925,-56.43884 0,-1.75155 0,-3.30849 0,-5.06004 7.20082,-41.45335 28.21942,-86.60443 66.75353,-92.24831 3.11387,-0.38924 6.22773,-0.58385 9.14698,-0.58385 33.08484,0 55.46577,26.66248 61.6935,56.43884 1.36232,7.0062 2.14078,14.0124 2.14078,21.21322 0,24.32709 -7.97928,50.21111 -24.13247,78.43053 -5.64388,9.53622 3.11387,18.68321 11.28777,18.68321 4.08695,0 8.36852,-1.94617 10.70392,-6.03312 18.29397,-31.91714 27.44096,-62.27735 27.44096,-90.886 0,-9.14699 -0.97309,-17.90474 -2.72464,-26.66249 -8.36852,-40.48028 -39.31257,-76.67898 -86.2152,-76.67898 -4.28157,0 -8.56313,0.38923 -13.03932,0.97308 -28.21942,4.08695 -50.79496,22.1863 -68.31046,53.90883 -4.28157,-23.54862 -11.09315,-40.86951 -20.43476,-52.15728 -2.53001,-3.11387 -6.03311,-4.47618 -9.3416,-4.47618 z"
         style="font-family:Chilanka;-inkscape-font-specification:Chilanka;fill:#3e3e3e;fill-opacity:1;stroke:none;stroke-opacity:1"
         id="path1003" />
      <path
         d="m 853.41763,135.3564 c -6.81159,0 -13.03932,6.03312 -13.03932,12.8447 l 2.53002,263.51102 c 0,7.97929 6.22773,12.06624 12.45547,12.06624 6.42235,0 13.03931,-4.28157 12.8447,-12.45547 l -2.53002,-263.3164 c 0,-6.61697 -6.03312,-12.65009 -12.26085,-12.65009 z"
         style="font-family:Chilanka;-inkscape-font-specification:Chilanka;fill:#3e3e3e;fill-opacity:1;stroke:none;stroke-opacity:1"
         id="path1005" />
      <path
         d="m 1010.2532,423.77836 c 6.8116,0 12.6501,-5.8385 12.6501,-12.65009 v -248.1363 c 29.1925,0.19462 58.1904,0 87.3829,0.19462 8.1739,0 12.2609,-6.42235 12.2609,-12.65009 0,-6.42235 -4.087,-12.65008 -12.0662,-12.65008 l -206.29372,-0.77847 c -8.1739,0 -12.26085,6.22773 -12.26085,12.65009 0,6.22773 4.08695,12.65008 12.26085,12.65008 l 93.41602,0.38924 v 248.33091 c 0,6.81159 5.8385,12.65009 12.65,12.65009 z"
         style="font-family:Chilanka;-inkscape-font-specification:Chilanka;stroke:none;stroke-opacity:1;fill:#3e3e3e;fill-opacity:1"
         id="path1007" />
      <path
         d="m 564.92723,386.9958 c 1.94616,-38.92334 1.94616,-70.06201 1.94616,-112.29384 0,-12.8447 -0.19462,-25.88402 -0.38923,-39.70181 0,-8.1739 -6.03311,-12.06623 -12.26086,-12.06623 -6.42234,0 -12.8447,4.08695 -12.8447,12.45547 0.19462,10.12007 0.19462,20.82398 0.19462,31.72252 0,29.97097 0.19461,122.80314 -5.64388,136.03708 -0.58385,1.75155 -0.97308,3.5031 -0.97308,5.06003 0,7.20082 6.03311,12.8447 12.8447,12.8447 12.06624,0 16.3478,-13.23393 17.12627,-34.05792 z"
         style="font-size:398.575px;line-height:1.25;font-family:Chilanka;-inkscape-font-specification:Chilanka;stroke-width:6.22776;fill:#3e3e3e;fill-opacity:1;stroke:none;stroke-opacity:1"
         id="path1001-3"
         sodipodi:nodetypes="cscscscssc" />
    </g>
    <g
       id="g86395"
       transform="matrix(0.93334234,0,0,1.0714182,-119.70329,19.060986)"
       style="stroke:#3e3e3e;stroke-opacity:1">
      <g
         transform="rotate(30,66.183745,1114.4695)"
         id="g100696"
         style="stroke:#3e3e3e;stroke-width:1.3;stroke-miterlimit:4;stroke-dasharray:none;stroke-opacity:1">
        <path
           style="fill:none;stroke:#3e3e3e;stroke-width:5.5;stroke-linecap:butt;stroke-linejoin:miter;stroke-miterlimit:4;stroke-dasharray:none;stroke-opacity:1"
           d="M 33.548087,-17.291268 C 77.888205,-57.728227 116.99421,-63.666652 162.63826,-75.158764"
           id="path147313"
           sodipodi:nodetypes="cc" />
        <path
           d="M 90.606227,1.7479858 33.548087,-17.291268"
           id="path100676"
           style="fill:none;stroke:#3e3e3e;stroke-width:5.5;stroke-miterlimit:4;stroke-dasharray:none;stroke-opacity:1"
           sodipodi:nodetypes="cc" />
        <path
           d="M 33.548087,-17.291268 44.825703,-142.40029"
           id="path100656"
           sodipodi:nodetypes="cc"
           style="fill:none;stroke:#3e3e3e;stroke-width:5.5;stroke-miterlimit:4;stroke-dasharray:none;stroke-opacity:1" />
        <path
           d="M 90.606227,1.7479858 C 96.443435,-42.331129 75.87752,-103.69897 44.825703,-142.40029"
           id="path100672"
           sodipodi:nodetypes="cc"
           style="fill:none;stroke:#3e3e3e;stroke-width:5.5;stroke-miterlimit:4;stroke-dasharray:none;stroke-opacity:1" />
        <path
           d="M 90.606227,1.7479858 C 116.39676,-53.754307 121.35315,-86.084129 122.95933,-143.85226"
           id="path100672-3"
           sodipodi:nodetypes="cc"
           style="fill:none;stroke:#3e3e3e;stroke-width:5.5;stroke-miterlimit:4;stroke-dasharray:none;stroke-opacity:1" />
        <path
           d="M 162.63826,-75.158764 90.606227,1.7479858"
           id="path100662"
           style="fill:none;stroke:#3e3e3e;stroke-width:5.5;stroke-miterlimit:4;stroke-dasharray:none;stroke-opacity:1"
           sodipodi:nodetypes="cc" />
        <path
           d="m 162.63826,-75.158764 c -7,-12 -32.67893,-56.693496 -39.67893,-68.693496"
           id="path100660"
           style="fill:none;stroke:#3e3e3e;stroke-width:5.5;stroke-miterlimit:4;stroke-dasharray:none;stroke-opacity:1"
           sodipodi:nodetypes="cc" />
        <path
           d="M 33.548087,-17.291268 C 48.298969,-70.998071 88.960667,-109.87442 122.95933,-143.85226"
           id="path100672-2"
           sodipodi:nodetypes="cc"
           style="fill:none;stroke:#3e3e3e;stroke-width:5.5;stroke-miterlimit:4;stroke-dasharray:none;stroke-opacity:1" />
        <path
           d="m 44.825703,-142.40029 78.133627,-1.45197"
           id="path100652"
           style="fill:none;stroke:#3e3e3e;stroke-width:5.5;stroke-miterlimit:4;stroke-dasharray:none;stroke-opacity:1"
           sodipodi:nodetypes="cc" />
        <circle
           cx="45.999725"
           cy="-6.0028534"
           id="circle100684"
           style="fill:#e67e30;fill-opacity:1;stroke:#3e3e3e;stroke-width:1;stroke-miterlimit:4;stroke-dasharray:none;stroke-opacity:1"
           transform="matrix(1,7.3714891e-5,7.3731717e-5,1,0,0)"
           r="0" />
        <circle
           cx="45.999725"
           cy="-141.99741"
           id="circle100686"
           style="fill:#e67e30;fill-opacity:1;stroke:#3e3e3e;stroke-width:1;stroke-miterlimit:4;stroke-dasharray:none;stroke-opacity:1"
           transform="matrix(1,7.3714891e-5,7.3731717e-5,1,0,0)"
           r="0" />
        <circle
           cx="254.19601"
           cy="-132.30711"
           id="circle100686-2"
           style="fill:#e67e30;fill-opacity:1;stroke:#3e3e3e;stroke-width:1;stroke-miterlimit:4;stroke-dasharray:none;stroke-opacity:1"
           transform="matrix(1,7.3714891e-5,7.3731717e-5,1,0,0)"
           r="0" />
        <circle
           cx="167.26791"
           cy="-153.26314"
           id="circle100686-9"
           style="fill:#e67e30;fill-opacity:1;stroke:#3e3e3e;stroke-width:1;stroke-miterlimit:4;stroke-dasharray:none;stroke-opacity:1"
           transform="matrix(1,7.3714891e-5,7.3731717e-5,1,0,0)"
           r="0" />
        <circle
           cx="202.19984"
           cy="-193.00624"
           id="circle100686-1"
           style="fill:#e67e30;fill-opacity:1;stroke:#3e3e3e;stroke-width:1;stroke-miterlimit:4;stroke-dasharray:none;stroke-opacity:1"
           transform="matrix(1,7.3714891e-5,7.3731717e-5,1,0,0)"
           r="0" />
        <circle
           cx="163.985"
           cy="-74.00013"
           id="circle100688"
           style="fill:#e67e30;fill-opacity:1;stroke:#3e3e3e;stroke-width:1;stroke-miterlimit:4;stroke-dasharray:none;stroke-opacity:1"
           transform="matrix(1,7.3714891e-5,7.3731717e-5,1,0,0)"
           r="0" />
        <circle
           cx="89.822601"
           cy="2.5189643"
           id="circle100690"
           style="fill:#e67e30;fill-opacity:1;stroke:#3e3e3e;stroke-width:1;stroke-miterlimit:4;stroke-dasharray:none;stroke-opacity:1"
           transform="matrix(1,7.3714891e-5,7.3731717e-5,1,0,0)"
           r="0" />
        <circle
           cx="123.99"
           cy="-141.99741"
           id="circle100692"
           style="fill:#e67e30;fill-opacity:1;stroke:#3e3e3e;stroke-width:1;stroke-miterlimit:4;stroke-dasharray:none;stroke-opacity:1"
           transform="matrix(1,7.3714891e-5,7.3731717e-5,1,0,0)"
           r="0" />
      </g>
      <ellipse
         style="fill:#ffffff;fill-opacity:1;stroke:#3e3e3e;stroke-width:6.6;stroke-miterlimit:4;stroke-dasharray:none;stroke-opacity:1"
         id="path861"
         cx="603.5177"
         cy="117.6116"
         rx="14.728187"
         ry="15.071165" />
      <ellipse
         style="fill:#ffffff;fill-opacity:1;stroke:#3e3e3e;stroke-width:6.6;stroke-miterlimit:4;stroke-dasharray:none;stroke-opacity:1"
         id="path861-3"
         cx="643.69495"
         cy="163.03563"
         rx="14.728187"
         ry="15.071165" />
      <ellipse
         style="fill:#ffffff;fill-opacity:1;stroke:#3e3e3e;stroke-width:6.6;stroke-miterlimit:4;stroke-dasharray:none;stroke-opacity:1"
         id="path861-6"
         cx="744.52991"
         cy="132.44846"
         rx="14.728187"
         ry="15.071165" />
      <ellipse
         style="fill:#ffffff;fill-opacity:1;stroke:#3e3e3e;stroke-width:6.6;stroke-miterlimit:4;stroke-dasharray:none;stroke-opacity:1"
         id="path861-6-7"
         cx="744.51373"
         cy="53.118675"
         rx="14.728187"
         ry="15.071165" />
      <ellipse
         style="fill:#ffffff;fill-opacity:1;stroke:#3e3e3e;stroke-width:6.6;stroke-miterlimit:4;stroke-dasharray:none;stroke-opacity:1"
         id="path861-6-5"
         cx="676.12201"
         cy="15.309304"
         rx="14.7276"
         ry="15.071165" />
      <ellipse
         style="fill:#ffffff;fill-opacity:1;stroke:#3e3e3e;stroke-width:6.6;stroke-miterlimit:4;stroke-dasharray:none;stroke-opacity:1"
         id="path861-6-5-5"
         cx="676.96362"
         cy="72.260536"
         rx="14.728187"
         ry="15.071165" />
    </g>
  </g>
  <text
     xml:space="preserve"
     style="font-style:normal;font-weight:normal;font-size:72px;line-height:1.25;font-family:sans-serif;fill:#3e3e3e;fill-opacity:1;stroke:none;stroke-width:6.22776;stroke-opacity:1;"
     x="77.012321"
     y="534.82941"
     id="text36937-5"
     transform="scale(1.0714182,0.93334237)"><tspan
       sodipodi:role="line"
       style="font-style:normal;font-variant:normal;font-weight:normal;font-stretch:normal;font-size:72px;font-family:Chilanka;-inkscape-font-specification:Chilanka;stroke-width:6.22776;fill:#3e3e3e;fill-opacity:1;stroke:none;stroke-opacity:1;"
       x="77.012321"
       y="534.82941"
       id="tspan1536">Collaborative Design Software</tspan></text>
  <text
     xml:space="preserve"
     transform="matrix(0.75,0,0,0.75,493.87165,-40.636708)"
     id="text44295"
     style="font-style:normal;font-weight:normal;font-size:40px;line-height:1.25;font-family:sans-serif;white-space:pre;shape-inside:url(#rect44297);fill:#000000;fill-opacity:1;stroke:none;" />
  <text
     xml:space="preserve"
     transform="matrix(0.75,0,0,0.75,-94.622581,-40.636708)"
     id="text81095"
     style="font-style:normal;font-weight:normal;font-size:40px;line-height:1.25;font-family:sans-serif;white-space:pre;shape-inside:url(#rect81097);fill:#000000;fill-opacity:1;stroke:none;" />
</svg>
